<?xml version="1.0" standalone="no"?>
<!DOCTYPE svg PUBLIC "-//W3C//DTD SVG 20010904//EN"
 "http://www.w3.org/TR/2001/REC-SVG-20010904/DTD/svg10.dtd">
<svg version="1.0"
    xmlns="http://www.w3.org/2000/svg" width="64.000000pt" height="64.000000pt" viewBox="0 0 64.000000 64.000000" preserveAspectRatio="xMidYMid meet">

    <g transform="translate(0.000000,64.000000) scale(0.100000,-0.100000)" fill="#078A40" stroke="none">
        <path d="M285 545 c35 -18 63 -25 95 -23 l45 3 -42 23 c-29 15 -59 22 -95 22
l-53 -1 50 -24z"/>
        <path d="M168 542 l-38 -17 48 -15 c40 -13 57 -13 93 -4 l44 11 -35 15 c-60
27 -74 28 -112 10z"/>
        <path d="M427 537 c15 -13 47 -30 70 -39 36 -14 41 -14 36 -1 -6 16 -97 63
-121 63 -8 0 -1 -10 15 -23z"/>
        <path d="M115 503 c-11 -3 -26 -10 -32 -15 -37 -30 14 -43 75 -19 25 10 41 20
36 23 -17 10 -59 15 -79 11z"/>
        <path d="M320 500 l-45 -5 31 -17 c17 -9 36 -24 43 -32 8 -10 29 -16 53 -16
37 0 38 1 25 20 -29 41 -60 56 -107 50z"/>
        <path d="M423 468 c31 -35 100 -69 114 -54 4 3 -10 24 -31 45 -28 29 -48 40
-76 43 l-38 3 31 -37z"/>
        <path d="M550 483 c0 -6 7 -14 16 -17 9 -4 14 -9 11 -12 -3 -3 -19 2 -37 11
l-32 16 23 -30 c15 -20 32 -31 47 -31 19 0 22 3 13 13 -6 8 -9 16 -6 19 3 3
-4 13 -15 23 -11 10 -20 13 -20 8z"/>
        <path d="M185 466 l-30 -12 48 -14 47 -14 1 -146 c0 -170 11 -213 52 -218 22
-3 27 1 27 17 0 12 -7 21 -15 21 -27 0 -35 39 -35 174 l0 136 28 0 c38 0 57
13 40 27 -52 41 -110 52 -163 29z"/>
        <path d="M34 439 c-16 -18 -16 -19 8 -19 14 0 31 6 37 14 19 23 -24 28 -45 5z"/>
        <path d="M101 431 c-11 -7 -10 -11 5 -18 21 -10 90 8 78 20 -10 10 -66 8 -83
-2z"/>
        <path d="M407 354 c-9 -10 2 -24 19 -24 8 0 14 7 14 15 0 15 -21 21 -33 9z" fill="#0290DD"/>
        <path d="M408 199 c2 -67 -1 -105 -9 -115 -9 -11 -7 -14 10 -14 30 0 37 29 33
138 -3 78 -6 92 -20 92 -15 0 -17 -12 -14 -101z" fill="#0290DD"/>
    </g>
</svg>
